<svg width="42" height="42" viewBox="0 0 42 42" fill="none" xmlns="http://www.w3.org/2000/svg">
<g id="icon-ajustes">
<g id="Rectangle" filter="url(#filter0_dd_476_4336)">
<rect x="5" y="1" width="32" height="32" rx="8" fill="white"/>
</g>
<g id="config">
<path id="settings" d="M27.8767 15.222H26.3767C26.263 15.222 26.152 15.1883 26.0575 15.1251C25.963 15.062 25.8893 14.9723 25.8458 14.8674C25.8022 14.7624 25.7907 14.6469 25.8128 14.5354C25.8348 14.4239 25.8894 14.3215 25.9697 14.241L27.0277 13.183C27.1821 13.0285 27.2689 12.819 27.2689 12.6005C27.2689 12.382 27.1821 12.1725 27.0277 12.018L25.6827 10.669C25.5257 10.5193 25.3171 10.4358 25.1002 10.4358C24.8833 10.4358 24.6747 10.5193 24.5177 10.669L23.4597 11.727C23.4078 11.7808 23.3457 11.8235 23.277 11.8527C23.2083 11.8819 23.1344 11.897 23.0597 11.897C22.9111 11.895 22.7686 11.838 22.6597 11.737C22.6027 11.6838 22.5576 11.6191 22.5272 11.5473C22.4969 11.4754 22.4821 11.398 22.4837 11.32V9.82401C22.4836 9.71542 22.462 9.60792 22.4202 9.50768C22.3784 9.40744 22.3173 9.31643 22.2403 9.23988C22.1633 9.16332 22.0719 9.10272 21.9714 9.06156C21.8709 9.0204 21.7633 8.99948 21.6547 9.00001H19.7467C19.5282 9.00027 19.3188 9.08717 19.1643 9.24165C19.0098 9.39612 18.9229 9.60555 18.9227 9.82401V11.324C18.9231 11.4002 18.9083 11.4757 18.8792 11.5461C18.8501 11.6165 18.8072 11.6804 18.7531 11.734C18.699 11.7876 18.6348 11.8299 18.5641 11.8584C18.4935 11.8869 18.4179 11.9011 18.3417 11.9C18.267 11.8999 18.1931 11.8848 18.1244 11.8556C18.0557 11.8264 17.9936 11.7837 17.9417 11.73L16.8837 10.669C16.7267 10.5193 16.5181 10.4358 16.3012 10.4358C16.0843 10.4358 15.8757 10.5193 15.7187 10.669L14.3687 12.018C14.2142 12.1725 14.1275 12.382 14.1275 12.6005C14.1275 12.819 14.2142 13.0285 14.3687 13.183L15.4277 14.241C15.5079 14.3214 15.5624 14.4238 15.5845 14.5352C15.6066 14.6465 15.5952 14.762 15.5518 14.8669C15.5084 14.9718 15.4349 15.0615 15.3405 15.1247C15.2462 15.1879 15.1352 15.2218 15.0217 15.222H13.5247C13.3062 15.2223 13.0968 15.3092 12.9423 15.4636C12.7878 15.6181 12.7009 15.8276 12.7007 16.046V17.953C12.7009 18.1715 12.7878 18.3809 12.9423 18.5354C13.0968 18.6898 13.3062 18.7767 13.5247 18.777H15.0247C15.1383 18.777 15.2494 18.8107 15.3439 18.8739C15.4384 18.937 15.5121 19.0267 15.5556 19.1317C15.5992 19.2366 15.6106 19.3521 15.5886 19.4636C15.5665 19.5751 15.5119 19.6775 15.4317 19.758L14.3697 20.817C14.2152 20.9715 14.1285 21.181 14.1285 21.3995C14.1285 21.618 14.2152 21.8275 14.3697 21.982L15.7187 23.331C15.8755 23.481 16.0842 23.5646 16.3012 23.5646C16.5182 23.5646 16.7268 23.481 16.8837 23.331L17.9417 22.273C17.9935 22.2193 18.0557 22.1765 18.1244 22.1473C18.1931 22.1181 18.267 22.103 18.3417 22.103C18.4179 22.1019 18.4935 22.1161 18.5641 22.1446C18.6348 22.1731 18.699 22.2154 18.7531 22.269C18.8072 22.3227 18.8501 22.3865 18.8792 22.4569C18.9083 22.5273 18.9231 22.6028 18.9227 22.679V24.179C18.9235 24.397 19.0106 24.6058 19.1651 24.7597C19.3195 24.9136 19.5287 25 19.7467 25H21.6547C21.8731 24.9997 22.0826 24.9128 22.237 24.7584C22.3915 24.6039 22.4784 24.3945 22.4787 24.176V22.676C22.4783 22.5998 22.4931 22.5243 22.5222 22.4539C22.5513 22.3835 22.5942 22.3197 22.6483 22.266C22.7024 22.2124 22.7666 22.1701 22.8372 22.1416C22.9079 22.1131 22.9835 22.0989 23.0597 22.1C23.1343 22.1001 23.2082 22.1153 23.2769 22.1445C23.3456 22.1737 23.4078 22.2164 23.4597 22.27L24.5177 23.328C24.6747 23.4777 24.8833 23.5612 25.1002 23.5612C25.3171 23.5612 25.5257 23.4777 25.6827 23.328L27.0317 21.979C27.1861 21.8245 27.2729 21.615 27.2729 21.3965C27.2729 21.178 27.1861 20.9685 27.0317 20.814L25.9737 19.756C25.8934 19.6755 25.8388 19.5731 25.8168 19.4616C25.7947 19.3501 25.8062 19.2346 25.8498 19.1297C25.8933 19.0247 25.967 18.935 26.0615 18.8719C26.156 18.8087 26.267 18.775 26.3807 18.775H27.8807C28.0979 18.7737 28.3059 18.6867 28.4594 18.533C28.6129 18.3793 28.6996 18.1713 28.7007 17.954V16.046C28.7004 15.8276 28.6135 15.6181 28.459 15.4636C28.3046 15.3092 28.0951 15.2223 27.8767 15.222ZM22.7747 17C22.7747 17.4102 22.653 17.8112 22.4252 18.1523C22.1973 18.4933 21.8733 18.7592 21.4944 18.9161C21.1154 19.0731 20.6984 19.1142 20.2961 19.0342C19.8937 18.9541 19.5242 18.7566 19.2341 18.4665C18.9441 18.1765 18.7466 17.8069 18.6665 17.4046C18.5865 17.0023 18.6276 16.5853 18.7846 16.2063C18.9415 15.8274 19.2074 15.5034 19.5484 15.2755C19.8895 15.0476 20.2905 14.926 20.7007 14.926C21.2505 14.9268 21.7776 15.1456 22.1663 15.5343C22.5551 15.9231 22.7739 16.4502 22.7747 17Z" fill="#2E4265"/>
</g>
</g>
<defs>
<filter id="filter0_dd_476_4336" x="0" y="0" width="42" height="42" filterUnits="userSpaceOnUse" color-interpolation-filters="sRGB">
<feFlood flood-opacity="0" result="BackgroundImageFix"/>
<feColorMatrix in="SourceAlpha" type="matrix" values="0 0 0 0 0 0 0 0 0 0 0 0 0 0 0 0 0 0 127 0" result="hardAlpha"/>
<feMorphology radius="1" operator="erode" in="SourceAlpha" result="effect1_dropShadow_476_4336"/>
<feOffset dy="2"/>
<feGaussianBlur stdDeviation="2"/>
<feColorMatrix type="matrix" values="0 0 0 0 0 0 0 0 0 0 0 0 0 0 0 0 0 0 0.07 0"/>
<feBlend mode="normal" in2="BackgroundImageFix" result="effect1_dropShadow_476_4336"/>
<feColorMatrix in="SourceAlpha" type="matrix" values="0 0 0 0 0 0 0 0 0 0 0 0 0 0 0 0 0 0 127 0" result="hardAlpha"/>
<feMorphology radius="1" operator="erode" in="SourceAlpha" result="effect2_dropShadow_476_4336"/>
<feOffset dy="4"/>
<feGaussianBlur stdDeviation="3"/>
<feColorMatrix type="matrix" values="0 0 0 0 0 0 0 0 0 0 0 0 0 0 0 0 0 0 0.12 0"/>
<feBlend mode="normal" in2="effect1_dropShadow_476_4336" result="effect2_dropShadow_476_4336"/>
<feBlend mode="normal" in="SourceGraphic" in2="effect2_dropShadow_476_4336" result="shape"/>
</filter>
</defs>
</svg>
