<svg width="42" height="42" viewBox="0 0 42 42" fill="none" xmlns="http://www.w3.org/2000/svg">
<g id="icon-empleados">
<g id="Rectangle" filter="url(#filter0_dd_40_183)">
<rect x="5" y="1" width="32" height="32" rx="8" fill="#03CCB9"/>
</g>
<g id="Group">
<path id="Vector" d="M21.6603 20.1515C21.989 20.0419 22.2914 19.8754 22.5676 19.665C23.3434 19.6956 24.0097 19.9762 24.5619 20.5241C24.9696 20.9755 25.2545 21.4971 25.3159 22.1108C25.3728 22.6762 25.3816 23.2504 25.3202 23.8115C25.2413 24.5172 24.6408 24.9906 23.8913 24.9906C21.9671 24.995 20.0428 24.9906 18.1186 24.9906C17.9214 24.9906 17.7241 24.9687 17.5444 24.8898C17.0009 24.6487 16.6941 24.2323 16.6765 23.6318C16.6634 23.211 16.6678 22.7902 16.6765 22.3694C16.6897 21.7338 16.9176 21.1772 17.3165 20.6863C17.3603 20.6293 17.4041 20.5767 17.4524 20.5197C18.009 19.9806 18.6709 19.6956 19.4423 19.665C19.7273 19.8666 20.0209 20.0463 20.3541 20.1471" fill="white"/>
<path id="Vector_2" d="M18.438 18.665C17.6665 18.6957 17.0003 18.9806 16.448 19.5197C15.7773 19.5197 15.1023 19.5197 14.4317 19.5153C13.7304 19.5065 13.1781 19.0551 13.0378 18.3844C13.0335 18.3669 13.0291 18.3538 13.0291 18.3362C13.0115 17.7489 12.9633 17.1528 13.051 16.5698C13.257 15.2154 14.3528 14.2555 15.7204 14.2029C15.7423 14.2029 15.7642 14.1985 15.7861 14.1985C15.8212 14.216 15.8562 14.2292 15.8869 14.2511C16.8381 14.9305 17.8681 14.9305 18.8193 14.2511C18.85 14.2292 18.8851 14.216 18.9201 14.1985C19.2927 14.2116 19.6521 14.2686 19.994 14.4308C19.9852 14.4439 19.9721 14.4571 19.9633 14.4658C19.8932 14.4746 19.8231 14.4834 19.7529 14.4921C18.8325 14.6149 18.1662 15.1014 17.8199 15.9561C17.4737 16.8153 17.6052 17.6261 18.1794 18.3581C18.2539 18.4677 18.3503 18.5642 18.438 18.665Z" fill="white"/>
<path id="Vector_3" d="M21.9546 14.4658C21.9633 14.4527 21.9765 14.4395 21.9852 14.4308C22.3403 14.2905 22.7041 14.1985 23.0898 14.1985C23.1556 14.2116 23.2038 14.2555 23.2608 14.2949C24.0234 14.8253 24.83 14.8866 25.6759 14.5316C25.8775 14.4483 26.0397 14.2949 26.237 14.1985C27.5738 14.2072 28.6828 15.1672 28.9414 16.412C28.9809 16.5961 28.9984 16.7802 28.9984 16.9643C28.9984 17.3412 29.0028 17.7182 28.9984 18.0952C28.9896 18.9104 28.3935 19.5065 27.5782 19.5153C26.9733 19.5197 26.3641 19.5153 25.7592 19.5153C25.6934 19.5153 25.6277 19.5197 25.5619 19.5197C25.0097 18.9762 24.3434 18.6913 23.5676 18.6606C23.6728 18.5422 23.7824 18.4283 23.8788 18.3055C24.602 17.3895 24.5231 16.0219 23.7035 15.1891C23.2257 14.7025 22.6296 14.4878 21.9546 14.4658Z" fill="white"/>
<path id="Vector_4" d="M26.237 13.1985C26.0397 13.2949 25.8819 13.4483 25.6759 13.5316C24.8256 13.8866 24.0191 13.8209 23.2608 13.2949C23.2082 13.2598 23.16 13.2116 23.0898 13.1985C23.0197 13.0451 22.875 12.9574 22.7742 12.8259C21.696 11.3838 22.4806 9.36315 24.2514 9.03879C25.6189 8.78895 26.9076 9.77517 27.0259 11.1559C27.0917 11.9054 26.8506 12.5366 26.329 13.0714C26.294 13.1064 26.2414 13.1371 26.237 13.1985Z" fill="#9AEBE3"/>
<path id="Vector_5" d="M18.9157 13.1941C18.8807 13.2116 18.8456 13.2248 18.8149 13.2467C17.8638 13.9261 16.8337 13.9261 15.8825 13.2467C15.8519 13.2248 15.8168 13.2116 15.7817 13.1941C15.6108 12.9749 15.4135 12.7821 15.2689 12.5366C14.4712 11.1559 15.3215 9.31932 16.8995 9.04318C18.2539 8.80649 19.4943 9.6656 19.7003 11.02C19.8143 11.7739 19.6083 12.4621 19.0648 13.0231C19.0078 13.0757 18.942 13.1196 18.9157 13.1941Z" fill="#9AEBE3"/>
<path id="Vector_6" d="M20.9615 14.8478C21.5283 14.8662 22.0251 15.0466 22.43 15.4588C23.1182 16.158 23.1844 17.3063 22.5772 18.0754C22.4962 18.1785 22.4005 18.2742 22.3159 18.3735C22.084 18.5502 21.8301 18.69 21.554 18.782C21.186 18.8667 20.8217 18.8741 20.4536 18.7784C20.1703 18.6937 19.9237 18.5428 19.6882 18.3735C19.6109 18.2889 19.5336 18.2079 19.4637 18.1159C18.9852 17.5013 18.8711 16.8205 19.1619 16.0991C19.4526 15.3778 20.012 14.973 20.7849 14.8699C20.8438 14.8626 20.9026 14.8552 20.9615 14.8478Z" fill="#9AEBE3"/>
</g>
</g>
<defs>
<filter id="filter0_dd_40_183" x="0" y="0" width="42" height="42" filterUnits="userSpaceOnUse" color-interpolation-filters="sRGB">
<feFlood flood-opacity="0" result="BackgroundImageFix"/>
<feColorMatrix in="SourceAlpha" type="matrix" values="0 0 0 0 0 0 0 0 0 0 0 0 0 0 0 0 0 0 127 0" result="hardAlpha"/>
<feMorphology radius="1" operator="erode" in="SourceAlpha" result="effect1_dropShadow_40_183"/>
<feOffset dy="2"/>
<feGaussianBlur stdDeviation="2"/>
<feColorMatrix type="matrix" values="0 0 0 0 0 0 0 0 0 0 0 0 0 0 0 0 0 0 0.07 0"/>
<feBlend mode="normal" in2="BackgroundImageFix" result="effect1_dropShadow_40_183"/>
<feColorMatrix in="SourceAlpha" type="matrix" values="0 0 0 0 0 0 0 0 0 0 0 0 0 0 0 0 0 0 127 0" result="hardAlpha"/>
<feMorphology radius="1" operator="erode" in="SourceAlpha" result="effect2_dropShadow_40_183"/>
<feOffset dy="4"/>
<feGaussianBlur stdDeviation="3"/>
<feColorMatrix type="matrix" values="0 0 0 0 0 0 0 0 0 0 0 0 0 0 0 0 0 0 0.12 0"/>
<feBlend mode="normal" in2="effect1_dropShadow_40_183" result="effect2_dropShadow_40_183"/>
<feBlend mode="normal" in="SourceGraphic" in2="effect2_dropShadow_40_183" result="shape"/>
</filter>
</defs>
</svg>
