<svg width="42" height="42" viewBox="0 0 42 42" fill="none" xmlns="http://www.w3.org/2000/svg">
<g id="icon-incidencias">
<g id="Rectangle" filter="url(#filter0_dd_54_340)">
<rect x="5" y="1" width="32" height="32" rx="8" fill="#03CCB9"/>
</g>
<g id="incidencias">
<path id="Vector" d="M25.2713 17.2588C24.0915 17.3326 23.1329 17.775 22.3217 18.6599C21.5106 19.5448 21.2156 20.5771 21.2894 21.757C21.2156 21.757 21.1419 21.757 21.0682 21.757C18.856 21.757 16.6438 21.757 14.4316 21.757C13.3255 21.757 12.6618 20.5771 13.178 19.6185C15.0215 16.3002 16.865 12.9819 18.7085 9.7374C18.9297 9.29496 19.3721 9 19.8883 9C20.4045 9 20.7732 9.29496 21.0682 9.7374C22.3217 12.0233 23.649 14.3093 24.9026 16.5952C24.9764 16.8164 25.1238 17.0376 25.2713 17.2588ZM19.8883 12.3183C19.1509 12.3183 18.6347 12.9819 18.7822 13.7193C19.0772 14.8254 19.2984 15.9315 19.5934 17.0376C19.5934 17.1851 19.7408 17.2588 19.8883 17.2588C20.0358 17.2588 20.1095 17.1851 20.1833 17.0376C20.4782 15.9315 20.7732 14.8254 20.9944 13.6456C21.1419 12.9819 20.6257 12.3183 19.8883 12.3183ZM19.8883 19.471C20.3308 19.471 20.6995 19.1023 20.6995 18.6599C20.6995 18.2175 20.3308 17.8488 19.8883 17.8488C19.4459 17.8488 19.0772 18.2175 19.0772 18.6599C19.0034 19.1023 19.3721 19.471 19.8883 19.471Z" fill="white"/>
<path id="Vector_2" d="M30.0022 21.7055C30.0022 21.9086 30.0022 22.1117 30.0022 22.3149C29.9695 22.4223 29.9718 22.5344 29.9508 22.6418C29.7967 23.543 29.3951 24.3135 28.7203 24.9299C27.7654 25.8032 26.6353 26.1394 25.3581 25.948C24.5245 25.8219 23.8031 25.4553 23.2053 24.8599C22.3017 23.9633 21.9048 22.8682 22.0192 21.6004C22.0963 20.7458 22.4325 19.9917 23.0045 19.3496C23.6513 18.6257 24.4592 18.1891 25.4188 18.042C25.5075 18.028 25.5986 18.0327 25.685 18C25.8881 18 26.0912 18 26.2944 18C26.3061 18.0187 26.3271 18.014 26.3434 18.0163C26.5162 18.0304 26.689 18.056 26.8594 18.0957C28.5009 18.4646 29.715 19.7722 29.9602 21.4323C29.9742 21.5233 29.9718 21.6167 30.0022 21.7055ZM25.5145 21.2665C25.5145 21.6074 25.5122 21.9483 25.5145 22.2892C25.5145 22.4573 25.6289 22.5787 25.7877 22.5787C26.3201 22.581 26.8501 22.581 27.3824 22.5787C27.5576 22.5787 27.6836 22.4106 27.6486 22.2402C27.6183 22.0931 27.5039 22.002 27.3451 22.002C26.9552 22.002 26.5629 21.9997 26.173 22.002C26.1123 22.002 26.0842 21.9833 26.0912 21.9226C26.0936 21.8993 26.0912 21.8759 26.0912 21.8526C26.0912 21.3202 26.0912 20.7902 26.0912 20.2578C26.0912 20.1201 26.0282 20.0243 25.9161 19.98C25.713 19.9006 25.5145 20.0314 25.5122 20.2508C25.5122 20.5894 25.5145 20.9279 25.5145 21.2665Z" fill="#9AEBE3"/>
</g>
</g>
<defs>
<filter id="filter0_dd_54_340" x="0" y="0" width="42" height="42" filterUnits="userSpaceOnUse" color-interpolation-filters="sRGB">
<feFlood flood-opacity="0" result="BackgroundImageFix"/>
<feColorMatrix in="SourceAlpha" type="matrix" values="0 0 0 0 0 0 0 0 0 0 0 0 0 0 0 0 0 0 127 0" result="hardAlpha"/>
<feMorphology radius="1" operator="erode" in="SourceAlpha" result="effect1_dropShadow_54_340"/>
<feOffset dy="2"/>
<feGaussianBlur stdDeviation="2"/>
<feColorMatrix type="matrix" values="0 0 0 0 0 0 0 0 0 0 0 0 0 0 0 0 0 0 0.07 0"/>
<feBlend mode="normal" in2="BackgroundImageFix" result="effect1_dropShadow_54_340"/>
<feColorMatrix in="SourceAlpha" type="matrix" values="0 0 0 0 0 0 0 0 0 0 0 0 0 0 0 0 0 0 127 0" result="hardAlpha"/>
<feMorphology radius="1" operator="erode" in="SourceAlpha" result="effect2_dropShadow_54_340"/>
<feOffset dy="4"/>
<feGaussianBlur stdDeviation="3"/>
<feColorMatrix type="matrix" values="0 0 0 0 0 0 0 0 0 0 0 0 0 0 0 0 0 0 0.12 0"/>
<feBlend mode="normal" in2="effect1_dropShadow_54_340" result="effect2_dropShadow_54_340"/>
<feBlend mode="normal" in="SourceGraphic" in2="effect2_dropShadow_54_340" result="shape"/>
</filter>
</defs>
</svg>
