<svg width="42" height="42" viewBox="0 0 42 42" fill="none" xmlns="http://www.w3.org/2000/svg">
<g id="icon-calendario">
<g id="Rectangle" filter="url(#filter0_dd_54_311)">
<rect x="5" y="1" width="32" height="32" rx="8" fill="#03CCB9"/>
</g>
<g id="calendario">
<path id="Vector" d="M27.6441 15.1743C27.6441 17.7879 27.6441 20.4014 27.6441 23.0149C27.6441 23.5778 27.2152 24 26.6389 24C23.2145 24 18.1818 23.9866 14.7574 23.9866C14.1811 23.7655 13.9935 23.3366 14.0002 22.7334C14.0203 20.2137 14.0069 17.694 14.0069 15.1743C14.6636 15.1743 16.9353 15.181 17.5921 15.181C20.9428 15.181 24.2934 15.181 27.6441 15.1743Z" fill="white"/>
<path id="Vector_2" d="M27.6435 14.1986C23.9262 14.1986 20.209 14.1986 16.4917 14.2053C16.197 14.2053 15.909 14.212 15.6143 14.212C15.1455 14.212 14.6833 14.1986 14.2145 14.2053C14.0537 14.2053 14.0068 14.1585 14.0068 13.9913C14.0135 13.1686 14.0068 12.346 14.0135 11.5167C14.0135 11.0284 14.4489 10.6004 14.9378 10.5937C15.5607 10.587 16.1903 10.6004 16.8132 10.6004C16.8199 10.7743 16.8132 10.9482 16.8199 11.1287C16.8266 11.2893 16.8132 11.3963 16.6257 11.4632C16.4515 11.5233 16.3912 11.6972 16.4314 11.8778C16.4716 12.0584 16.5922 12.1855 16.773 12.1922C17.0744 12.2055 17.3758 12.2055 17.6705 12.1922C17.8513 12.1855 17.9719 12.0584 18.0121 11.8778C18.0456 11.7039 17.992 11.5233 17.838 11.4765C17.6035 11.403 17.6169 11.2558 17.6236 11.0752C17.6236 10.9147 17.6236 10.7609 17.6236 10.6004C18.5546 10.6004 19.4923 10.6004 20.4233 10.6004C20.4233 10.7743 20.4166 10.9482 20.43 11.1221C20.4367 11.2826 20.4233 11.3896 20.2357 11.4565C20.0616 11.5167 20.0013 11.6906 20.0415 11.8711C20.0817 12.0517 20.2023 12.1788 20.3831 12.1855C20.6845 12.1989 20.9859 12.1989 21.2806 12.1855C21.4614 12.1788 21.582 12.0517 21.6222 11.8711C21.6557 11.6972 21.6021 11.5167 21.448 11.4698C21.2136 11.3963 21.227 11.2491 21.2337 11.0685C21.2404 10.908 21.2337 10.7542 21.2404 10.5937C22.1714 10.5937 23.1091 10.5937 24.0401 10.5937C24.0401 10.7676 24.0334 10.9415 24.0468 11.1154C24.0535 11.2759 24.0401 11.3829 23.8525 11.4498C23.6784 11.51 23.6181 11.6839 23.6583 11.8644C23.6985 12.045 23.819 12.1721 23.9999 12.1788C24.3013 12.1922 24.6027 12.1922 24.8974 12.1788C25.0782 12.1721 25.1988 12.045 25.239 11.8644C25.2725 11.6906 25.2189 11.51 25.0648 11.4632C24.8304 11.3896 24.8438 11.2424 24.8505 11.0619C24.8572 10.9013 24.8505 10.7475 24.8572 10.587C25.4734 10.587 26.0896 10.5736 26.7058 10.587C27.2416 10.5937 27.6569 11.0217 27.6636 11.5702C27.6502 12.453 27.6435 13.3225 27.6435 14.1986Z" fill="#9AEBE3"/>
<path id="Vector_3" d="M17.6189 10.6016C17.6189 10.7625 17.6189 10.9166 17.6122 11.0774C17.6055 11.2517 17.5921 11.4058 17.8266 11.4795C17.9875 11.5264 18.0411 11.7073 18.0009 11.8816C17.9607 12.0625 17.84 12.1898 17.6591 12.1965C17.3575 12.2099 17.056 12.2099 16.7611 12.1965C16.5802 12.1898 16.4528 12.0625 16.4193 11.8816C16.3791 11.7006 16.4461 11.5264 16.6137 11.4661C16.8013 11.4058 16.8214 11.2919 16.808 11.131C16.7946 10.9568 16.8013 10.7826 16.8013 10.6083C16.8013 10.2263 16.8013 9.84437 16.808 9.46239C16.808 9.16753 16.9554 9 17.2101 9C17.4648 9 17.6055 9.16753 17.6122 9.46239C17.6189 9.83767 17.6189 10.2196 17.6189 10.6016Z" fill="white"/>
<path id="Vector_4" d="M21.2309 10.6016C21.2309 10.7625 21.2309 10.9166 21.2242 11.0774C21.2175 11.2517 21.2041 11.4058 21.4387 11.4795C21.5995 11.5264 21.6531 11.7073 21.6129 11.8816C21.5727 12.0625 21.4521 12.1898 21.2712 12.1965C20.9696 12.2099 20.668 12.2099 20.3732 12.1965C20.1922 12.1898 20.0649 12.0625 20.0314 11.8816C19.9912 11.7006 20.0582 11.5264 20.2257 11.4661C20.4134 11.4058 20.4335 11.2919 20.4201 11.131C20.4067 10.9568 20.4134 10.7826 20.4134 10.6083C20.4134 10.2263 20.4134 9.84437 20.4201 9.46239C20.4201 9.16753 20.5675 9 20.8222 9C21.0768 9 21.2175 9.16753 21.2242 9.46239C21.2309 9.83767 21.2309 10.2196 21.2309 10.6016Z" fill="white"/>
<path id="Vector_5" d="M24.8429 10.6016C24.8429 10.7625 24.8429 10.9166 24.8362 11.0774C24.8295 11.2517 24.8161 11.4058 25.0507 11.4795C25.2115 11.5264 25.2651 11.7073 25.2249 11.8816C25.1847 12.0625 25.0641 12.1898 24.8831 12.1965C24.5816 12.2099 24.28 12.2099 23.9851 12.1965C23.8042 12.1898 23.6769 12.0625 23.6434 11.8816C23.6032 11.7006 23.6702 11.5264 23.8377 11.4661C24.0253 11.4058 24.0455 11.2919 24.0321 11.131C24.0186 10.9568 24.0253 10.7826 24.0253 10.6083C24.0253 10.2263 24.0253 9.84437 24.0321 9.46239C24.0321 9.16753 24.1795 9 24.4341 9C24.6888 9 24.8295 9.16753 24.8362 9.46239C24.8429 9.83767 24.8429 10.2196 24.8429 10.6016Z" fill="white"/>
<g id="Group 21">
<path id="Vector_6" d="M17.1375 18.4997C16.7252 18.4997 16.4003 18.1623 16.4003 17.75C16.4003 17.3377 16.7252 17.0128 17.1375 17.0003C17.5623 16.9878 17.9121 17.3377 17.8996 17.7625C17.8746 18.1873 17.5373 18.5121 17.1375 18.4997Z" fill="#03CCB9"/>
<path id="Vector_7" d="M20.8199 17.0105C21.2324 17.0105 21.5574 17.3355 21.5699 17.748C21.5699 18.173 21.2199 18.5105 20.7949 18.5105C20.3949 18.498 20.0699 18.1605 20.0824 17.748C20.0824 17.3355 20.4074 17.0105 20.8199 17.0105Z" fill="#03CCB9"/>
<path id="Vector_8" d="M24.5303 17.0108C24.9421 17.0357 25.254 17.3726 25.2415 17.7843C25.2291 18.2086 24.8548 18.533 24.4305 18.508C24.0313 18.4831 23.7193 18.1212 23.7443 17.722C23.7817 17.2977 24.1186 16.9858 24.5303 17.0108Z" fill="#03CCB9"/>
<path id="Vector_9" d="M17.8875 21.4197C17.8875 21.8321 17.5751 22.157 17.1626 22.182C16.7377 22.1945 16.3878 21.8571 16.4003 21.4197C16.4128 21.0073 16.7377 20.6824 17.1502 20.6824C17.5626 20.6824 17.8875 21.0073 17.8875 21.4197Z" fill="#03CCB9"/>
<path id="Vector_10" d="M20.8259 20.6824C21.2418 20.6824 21.582 21.01 21.582 21.4133C21.5946 21.8418 21.2418 22.1946 20.8133 22.182C20.41 22.1694 20.0824 21.8418 20.0824 21.4259C20.0824 21.01 20.41 20.6824 20.8259 20.6824Z" fill="#03CCB9"/>
<path id="Vector_11" d="M25.2539 21.4133C25.2665 21.8292 24.9388 22.1694 24.5356 22.182C24.1071 22.1946 23.7542 21.8544 23.7542 21.4259C23.7542 21.01 24.0819 20.6824 24.4978 20.6824C24.9136 20.6824 25.2413 21.01 25.2539 21.4133Z" fill="#03CCB9"/>
</g>
</g>
</g>
<defs>
<filter id="filter0_dd_54_311" x="0" y="0" width="42" height="42" filterUnits="userSpaceOnUse" color-interpolation-filters="sRGB">
<feFlood flood-opacity="0" result="BackgroundImageFix"/>
<feColorMatrix in="SourceAlpha" type="matrix" values="0 0 0 0 0 0 0 0 0 0 0 0 0 0 0 0 0 0 127 0" result="hardAlpha"/>
<feMorphology radius="1" operator="erode" in="SourceAlpha" result="effect1_dropShadow_54_311"/>
<feOffset dy="2"/>
<feGaussianBlur stdDeviation="2"/>
<feColorMatrix type="matrix" values="0 0 0 0 0 0 0 0 0 0 0 0 0 0 0 0 0 0 0.07 0"/>
<feBlend mode="normal" in2="BackgroundImageFix" result="effect1_dropShadow_54_311"/>
<feColorMatrix in="SourceAlpha" type="matrix" values="0 0 0 0 0 0 0 0 0 0 0 0 0 0 0 0 0 0 127 0" result="hardAlpha"/>
<feMorphology radius="1" operator="erode" in="SourceAlpha" result="effect2_dropShadow_54_311"/>
<feOffset dy="4"/>
<feGaussianBlur stdDeviation="3"/>
<feColorMatrix type="matrix" values="0 0 0 0 0 0 0 0 0 0 0 0 0 0 0 0 0 0 0.12 0"/>
<feBlend mode="normal" in2="effect1_dropShadow_54_311" result="effect2_dropShadow_54_311"/>
<feBlend mode="normal" in="SourceGraphic" in2="effect2_dropShadow_54_311" result="shape"/>
</filter>
</defs>
</svg>
