<svg width="42" height="42" viewBox="0 0 42 42" fill="none" xmlns="http://www.w3.org/2000/svg">
<g id="icon-informes">
<g id="Rectangle" filter="url(#filter0_dd_688_3259)">
<rect x="5" y="1" width="32" height="32" rx="8" fill="white"/>
</g>
<g id="document">
<path id="Path" opacity="0.603585" d="M27.9999 22.8667H26.814V10.2606H16.7333V9H27.407C27.7343 9 27.9999 9.28238 27.9999 9.6303V22.8667Z" fill="#2E4265"/>
<path id="Shape" fill-rule="evenodd" clip-rule="evenodd" d="M15.6259 12.4667H25.6407C25.9863 12.4667 26.2667 12.7384 26.2667 13.0733V23.9933C26.2667 24.3282 25.9863 24.6 25.6407 24.6H15.6259C15.2804 24.6 15 24.3282 15 23.9933V13.0733C15 12.7384 15.2804 12.4667 15.6259 12.4667ZM17.5037 21.5667H21.2593V20.3533H17.5037V21.5667ZM23.763 19.14H17.5037V17.9267H23.763V19.14ZM17.5037 16.7133H23.763V15.5H17.5037V16.7133Z" fill="#2E4265"/>
</g>
</g>
<defs>
<filter id="filter0_dd_688_3259" x="0" y="0" width="42" height="42" filterUnits="userSpaceOnUse" color-interpolation-filters="sRGB">
<feFlood flood-opacity="0" result="BackgroundImageFix"/>
<feColorMatrix in="SourceAlpha" type="matrix" values="0 0 0 0 0 0 0 0 0 0 0 0 0 0 0 0 0 0 127 0" result="hardAlpha"/>
<feMorphology radius="1" operator="erode" in="SourceAlpha" result="effect1_dropShadow_688_3259"/>
<feOffset dy="2"/>
<feGaussianBlur stdDeviation="2"/>
<feColorMatrix type="matrix" values="0 0 0 0 0 0 0 0 0 0 0 0 0 0 0 0 0 0 0.07 0"/>
<feBlend mode="normal" in2="BackgroundImageFix" result="effect1_dropShadow_688_3259"/>
<feColorMatrix in="SourceAlpha" type="matrix" values="0 0 0 0 0 0 0 0 0 0 0 0 0 0 0 0 0 0 127 0" result="hardAlpha"/>
<feMorphology radius="1" operator="erode" in="SourceAlpha" result="effect2_dropShadow_688_3259"/>
<feOffset dy="4"/>
<feGaussianBlur stdDeviation="3"/>
<feColorMatrix type="matrix" values="0 0 0 0 0 0 0 0 0 0 0 0 0 0 0 0 0 0 0.12 0"/>
<feBlend mode="normal" in2="effect1_dropShadow_688_3259" result="effect2_dropShadow_688_3259"/>
<feBlend mode="normal" in="SourceGraphic" in2="effect2_dropShadow_688_3259" result="shape"/>
</filter>
</defs>
</svg>
